<?xml version="1.0" encoding="utf-8"?>
<!-- Generator: Adobe Illustrator 21.0.0, SVG Export Plug-In . SVG Version: 6.00 Build 0)  -->
<svg version="1.1" id="Layer_1" xmlns="http://www.w3.org/2000/svg" xmlns:xlink="http://www.w3.org/1999/xlink" x="0px" y="0px"
	 viewBox="0 0 1280 1024" style="enable-background:new 0 0 1280 1024;" xml:space="preserve">
<style type="text/css">
	.st0{fill:#FFFFFF;}
	.st1{fill:none;stroke:#FFFFFF;stroke-width:20;stroke-miterlimit:10;}
	.st2{font-family:'BigCaslon-Medium';}
	.st3{font-size:232.6933px;}
</style>
<g>
	<path class="st0" d="M640,269.1c85.2,0,167.7,7.4,245.4,22c74.7,14,141.6,34,199,59.4c56.4,25,100.4,53.8,130.8,85.7
		c29.7,31.1,44.8,63.6,44.8,96.6s-15.1,65.5-44.8,96.6c-30.4,31.9-74.4,60.7-130.8,85.7c-57.4,25.4-124.3,45.4-199,59.4
		c-77.7,14.6-160.3,22-245.4,22s-167.7-7.4-245.4-22c-74.7-14-141.6-34-199-59.4c-56.4-25-100.4-53.8-130.8-85.7
		C35.1,598.3,20,565.8,20,532.8s15.1-65.5,44.8-96.6c30.4-31.9,74.4-60.7,130.8-85.7c57.4-25.4,124.3-45.4,199-59.4
		C472.3,276.5,554.8,269.1,640,269.1 M640,249.1c-353.5,0-640,127-640,283.7s286.5,283.7,640,283.7s640-127,640-283.7
		S993.5,249.1,640,249.1L640,249.1z"/>
</g>
<g>
	<path class="st0" d="M635,269.1c38.8,0,76.4,7,111.8,20.9c34.1,13.4,64.7,32.5,90.9,56.8c26.1,24.2,46.7,52.4,61,83.8
		c14.8,32.4,22.2,66.7,22.2,102.1s-7.5,69.8-22.2,102.1c-14.3,31.4-34.8,59.6-61,83.8c-26.2,24.3-56.8,43.5-90.9,56.8
		c-35.4,13.9-73,20.9-111.8,20.9s-76.4-7-111.8-20.9c-34.1-13.4-64.7-32.5-90.9-56.8c-26.1-24.2-46.7-52.4-61-83.8
		c-14.8-32.4-22.2-66.7-22.2-102.1s7.5-69.8,22.2-102.1c14.3-31.4,34.8-59.6,61-83.8c26.2-24.3,56.8-43.5,90.9-56.8
		C558.6,276.1,596.2,269.1,635,269.1 M635,249.1c-168.9,0-305.9,127-305.9,283.7S466.1,816.5,635,816.5s305.9-127,305.9-283.7
		S803.9,249.1,635,249.1L635,249.1z"/>
</g>
<g>
	<path d="M635,673.9c-84.3,0-152.9-63.3-152.9-141.1S550.7,391.7,635,391.7c84.3,0,152.9,63.3,152.9,141.1S719.3,673.9,635,673.9z"
		/>
	<path d="M635,401.7c78.8,0,142.9,58.8,142.9,131.1S713.8,663.9,635,663.9s-142.9-58.8-142.9-131.1S556.2,401.7,635,401.7
		 M635,381.7c-90,0-162.9,67.7-162.9,151.1c0,83.5,72.9,151.1,162.9,151.1s162.9-67.7,162.9-151.1C797.9,449.3,725,381.7,635,381.7
		L635,381.7z"/>
</g>
<g>
	<line class="st1" x1="234.4" y1="315.4" x2="141.3" y2="136.5"/>
</g>
<line class="st1" x1="440.5" y1="256.8" x2="400.6" y2="99.5"/>
<line class="st1" x1="636.7" y1="250.6" x2="633.4" y2="81"/>
<line class="st1" x1="846.1" y1="259.9" x2="899.3" y2="111.8"/>
<line class="st1" x1="1065.6" y1="321.5" x2="1152" y2="167.3"/>
<text transform="matrix(0.8488 0 0 1 511.9351 614.0146)" class="st0 st2 st3">FS</text>
<g>
	<g>
		<path class="st0" d="M349.6,840.8c-6.3-7.7-12.3-14.4-18.1-20.1c-5.8-5.8-11.5-10.4-17.3-13.8c-2.8-1.7-8.1-3.7-15.9-6.3
			c-7.8-2.6-16.9-5.2-27.4-7.9c-1.8-0.5-3.8-1-6.1-1.5c-2.3-0.5-4.6-1.1-6.7-1.6c-2.1-0.5-4.2-1-6-1.4c-1.9-0.5-3.3-0.8-4.1-1
			c-0.4,0.7-0.8,1.3-1.3,2c-0.5,0.6-0.9,1.4-1.4,2.3c-0.4,0.9-1,2.1-1.6,3.5c-0.6,1.4-1.3,3.2-2.1,5.3c-1.3,4.1-2.8,8.6-4.2,13.5
			c-1.5,4.9-2.8,9.6-4.1,14c-1.2,4.4-2.3,8.2-3.2,11.4c-0.9,3.1-1.4,4.9-1.5,5.5c0.6,0.2,2.2,0.6,5,1.4c2.9,0.8,6.2,1.7,9.9,2.5
			c3.6,0.9,7.4,1.7,11.3,2.5c3.9,0.8,7.2,1.4,9.9,1.7c6.9,0.7,12.5,0.8,16.8,0.1c4.3-0.6,7.8-1.8,10.5-3.4c2.7-1.6,4.8-3.7,6.4-6
			c1.5-2.4,3-5,4.4-7.8c1.1,0.3,2.2,0.5,3.3,0.8c-4.4,19.4-8.8,38.8-13.2,58.1c-1.1-0.3-2.3-0.5-3.4-0.8c-0.6-4.2-1.9-8.8-3.7-13.7
			c-1.8-4.9-4.4-9-7.8-12.2c-3.1-2.9-6.5-5.4-10.2-7.4c-3.7-2-8.3-3.8-13.6-5.5c-2.8-0.8-5.1-1.6-7.2-2.2c-2-0.6-4-1.2-5.8-1.7
			c-1.9-0.5-3.8-1-5.8-1.6c-2-0.6-4.5-1.2-7.5-2.1c-1.1,3.8-2.1,7.6-3.2,11.4c-1,3.7-2,7.3-3,10.7c-0.9,3.3-1.7,6.4-2.4,9.2
			c-0.7,2.8-1.3,5.2-1.9,7.3c-0.9,3.9-1.6,7.5-2,11.1c-0.5,3.5-0.1,6.4,1.2,8.5c1.3,2.1,3.8,4.2,7.8,6.3c3.9,2,9.8,4.2,17.7,6.5
			c-0.2,0.6-0.3,1.2-0.5,1.8c-31-8-61.8-17-92.4-26.9c0.2-0.6,0.4-1.2,0.6-1.8c4.9,1.1,9.6,1.7,14.1,2c4.4,0.2,8.3-0.2,11.5-1.3
			c1.2-0.4,2.3-1.2,3.2-2.4c1-1.2,2-2.6,3-4.2c1-1.6,1.9-3.4,2.7-5.3c0.8-1.9,1.5-3.8,2-5.7c0.5-1.7,1.2-3.9,2.2-6.7
			c1-2.8,2-5.9,3.1-9.2c1.1-3.3,2.2-6.8,3.3-10.3c1.1-3.7,2.1-7.1,3.1-10.3c3.5-11.5,7-23,10.5-34.5c0.6-2.1,1.3-4.3,1.9-6.6
			c0.6-2.3,1.1-4.4,1.4-6.5c0.3-2.1,0.4-4,0.3-5.8c-0.1-1.8-0.6-3.2-1.5-4.2c-2.1-2.7-4.5-4.8-7.3-6.2c-2.8-1.5-6.5-3.2-11.1-5.2
			c0.2-0.6,0.4-1.2,0.6-1.8c48.6,15.7,97.9,28.7,147.6,39.1c4,11.4,8.1,22.8,12.3,34.2C351.5,840.6,350.6,840.7,349.6,840.8z"/>
		<path class="st0" d="M470.3,933.5c-4.3,5.2-9.8,9.5-16.5,13c-6.8,3.4-14.5,5.8-23.1,7.1c-8.7,1.2-17.7,1.2-26.9-0.2
			c-7.7-1.1-15.5-3.2-23.5-6.3c-8-3-15.1-7.1-21.4-12c-6.3-4.9-11-10.7-14.3-17.3c-3.2-6.6-4.1-13.8-2.6-21.5
			c1.1-5.6,3.8-10.6,8.1-15.2c4.3-4.6,9.7-8.3,16.3-11.3c6.6-2.9,14.2-4.9,22.9-6c8.7-1.1,18-0.8,28,0.6c7.4,1.1,14.8,3,22.2,5.9
			c7.4,2.8,14,6.4,19.9,10.8c5.9,4.3,10.5,9.4,14.1,15.3c3.5,5.9,4.9,12.5,4.2,19.9C477,922.6,474.5,928.3,470.3,933.5z
			 M450.3,899.5c-0.8-5-2.6-9.6-5.3-14.1c-2.7-4.4-6.5-8.3-11.4-11.6c-4.9-3.3-11.1-5.5-18.7-6.7c-6.1-0.9-11.8-0.5-17,1.1
			c-5.2,1.7-9.9,4.2-14,7.5c-4.1,3.4-7.5,7.4-10.2,12c-2.7,4.6-4.4,9.5-5.3,14.6c-1,5.6-1.2,11-0.5,16.3c0.7,5.3,2.4,10.1,5.3,14.5
			c2.9,4.4,6.8,8.2,12,11.3c5.1,3.1,11.5,5.3,19.2,6.4c7.7,1.1,14.3,0.6,19.9-1.6c5.6-2.2,10.3-5.2,14-9.2c3.8-3.9,6.7-8.3,8.7-13.2
			c2.1-4.8,3.3-9.4,3.8-13.7C451.3,909,451.2,904.4,450.3,899.5z"/>
		<path class="st0" d="M586.1,895.8c-2.5,1.7-5.4,2.5-8.6,2.4c-3-0.1-5.4-0.5-7.2-1.3c-1.8-0.7-3.3-1.6-4.6-2.5
			c-1.3-0.9-2.7-1.8-4.1-2.5c-1.5-0.7-3.5-1.2-6.2-1.3c-2.3-0.1-4.5,0.3-6.7,1.2c-2.2,0.9-4.3,2.1-6.3,3.6c-2,1.5-3.8,3.2-5.5,5.1
			c-1.6,1.9-3.1,3.8-4.4,5.6c-1.2,17.7-2.3,35.5-3.5,53.2c0.5,1.1,1.7,2.1,3.7,2.8c1.9,0.7,4.1,1.3,6.6,1.7c2.5,0.4,5,0.7,7.7,0.9
			c2.7,0.2,5,0.5,7,0.8c0,0.6-0.1,1.2-0.1,1.8c-22.2-1.1-44.4-2.6-66.6-4.7c0.1-0.6,0.1-1.2,0.2-1.8c4.6,0.2,8.5,0,11.9-0.6
			c3.3-0.6,5.1-1.9,5.2-3.8c1.7-20.8,3.4-41.6,5.1-62.4c0.1-1,0-1.7-0.2-2.2c-0.2-0.5-1-1.1-2.3-1.9c-1.6-0.8-3.6-1.7-5.7-2.8
			c-2.2-1.1-4.4-2.1-6.6-2.9c0-0.4,0.1-0.7,0.1-1.1c12.6-2,25.1-4.2,37.6-6.5c0.6,0,1.1,0.1,1.7,0.1c-0.7,8.5-1.5,17.1-2.2,25.6
			c0.2,0,0.4,0,0.6,0c1-1.4,2.7-3.5,5-6.2c2.3-2.7,5.1-5.4,8.4-8.1c3.4-2.7,7.4-5,12-6.9c4.6-1.9,9.8-2.7,15.6-2.5
			c4.7,0.2,8.6,1.2,11.8,3.2c3.2,2,4.8,4.3,4.7,7.2C589.9,891.9,588.6,894.1,586.1,895.8z"/>
		<path class="st0" d="M707.5,948.4c-2.6,3.5-6.2,6.8-10.8,9.9c-4.6,3-10.2,5.6-16.8,7.7c-6.6,2.1-14,3.2-22.1,3.3
			c-10.1,0.2-19.4-0.9-27.7-3.3c-8.3-2.3-15.4-5.7-21.1-10c-5.8-4.3-10.1-9.4-13.1-15.2c-3-5.8-4.4-11.9-4.2-18.3
			c0.1-5.2,1.7-10.3,4.7-15.4c3-5.1,7.1-9.6,12.4-13.6c5.3-4,11.6-7.2,19-9.8c7.4-2.5,15.6-3.8,24.6-4c7.3-0.1,14.2,0.3,20.7,1.4
			c6.5,1,12.2,2.7,17.1,5c4.9,2.3,9,5.3,12.2,9c3.2,3.7,5.3,8.1,6.1,13.2c-30.6,1.6-61.3,2.3-92,2c0,1-0.1,2.1-0.3,3.4
			c-0.2,1.3-0.3,2.6-0.3,4c0,5.2,1.1,10.2,3.4,14.9c2.3,4.8,5.7,9,10.2,12.6c4.5,3.6,10.2,6.5,17.1,8.5c6.9,2,14.9,2.9,24,2.7
			c9.9-0.3,18.4-2.2,25.6-5.6c7.2-3.5,11.9-7.6,14-12.3c0.8,0.1,1.6,0.2,2.4,0.2C711.7,941.7,710.1,944.9,707.5,948.4z M672,887.4
			c-4.9-3.1-11.4-4.6-19.4-4.5c-5.3,0.1-10,1.1-14.2,3.2c-4.2,2.1-7.9,4.4-11,7.2c-3.1,2.7-5.6,5.4-7.3,8.2
			c-1.7,2.8-2.8,4.9-3.2,6.4c4.4,0,8.3,0.1,11.7,0.1c3.4,0,6.8,0,10.2-0.1c3.3-0.1,6.8-0.2,10.4-0.3c3.6-0.1,7.6-0.2,12-0.3
			c2.9-0.1,5.5-0.2,8-0.4c2.5-0.2,4.7-0.6,6.5-1.1c1.3-1,2.3-2,2.9-2.9c0.6-0.9,0.9-2.2,0.9-3.9C679.5,894.3,676.9,890.5,672,887.4z
			"/>
		<path class="st0" d="M830.6,947.5c-7.7,6.1-18.5,10.5-32.1,13.1c1.1,8.8,2.1,17.5,3.2,26.3c-1.9,0.2-3.8,0.4-5.7,0.6
			c-0.8-8.7-1.6-17.3-2.4-26c-1.3,0.3-2.7,0.5-4.1,0.6c-1.4,0.1-2.7,0.3-4.1,0.4c-2.1,0.2-4.3,0.4-6.4,0.6
			c0.9,8.6,1.9,17.2,2.8,25.8c-1.9,0.2-3.8,0.4-5.7,0.5c-0.7-8.7-1.4-17.5-2.1-26.2c-14.3,0.7-25.9-0.6-34.7-3.8
			c-8.8-3.2-13.3-8-13.7-14.3c-0.2-2.6,1.2-4.9,4-7c2.8-2.1,6.1-3.3,10-3.6c3.3-0.2,6.2,0.2,8.7,1.2c2.5,1,4.3,2.4,5.2,4.2
			c-0.5,1-0.9,2-1.1,3c-0.2,0.9-0.3,2.1-0.2,3.4c0.3,3.7,1.9,6.9,4.9,9.7c3,2.8,8.5,4.3,16.5,4.6c-1.3-13.6-2.5-27.3-3.8-40.9
			c-2.2-0.2-4.4-0.4-6.6-0.8c-2.3-0.4-4.1-0.6-5.4-0.7c-8.8-1.4-16.3-3.9-22.4-7.6c-6.1-3.7-9.3-8.6-9.7-14.6
			c-0.3-3.9,0.6-7.6,2.6-10.8c1.9-3.3,4.7-6.2,8.1-8.8c3.5-2.6,7.7-4.8,12.6-6.7c4.9-1.9,10.2-3.4,15.9-4.5
			c-0.8-7.2-1.5-14.5-2.3-21.7c1.7-0.2,3.5-0.3,5.2-0.5c0.6,7.1,1.2,14.3,1.8,21.4c1.1-0.2,2.2-0.4,3.2-0.5c1.3-0.1,2.4-0.2,3.5-0.4
			c1.1-0.1,2.2-0.2,3.3-0.3c1.3-0.1,2.5-0.2,3.6-0.2c-0.8-7.1-1.7-14.2-2.5-21.3c1.7-0.2,3.5-0.4,5.2-0.6c0.7,7.2,1.4,14.5,2.1,21.7
			c11.2-0.2,20.8,1,28.8,3.7c8,2.7,12.4,7,13.3,13c0.4,2.6-0.7,5-3,7.2c-2.4,2.3-5.6,3.6-9.5,4.1c-3.2,0.4-6,0.1-8.3-0.8
			c-2.3-1-4-2.3-4.9-4.1c0.4-1,0.8-2,0.9-3c0.2-1,0.2-2.1,0-3.5c-0.4-3.6-2-6.6-4.6-9.1c-2.7-2.5-6.7-4.1-12.2-4.6
			c1.5,13.3,2.9,26.6,4.4,39.9c2.2,0.3,4.1,0.5,5.8,0.7c1.7,0.2,3.6,0.3,5.7,0.5c10.6,0.9,19.2,3,25.6,6.6c6.5,3.6,10.2,8.4,11,14.7
			C841.7,934.8,838.3,941.4,830.6,947.5z M765,867.9c-6.2,1.8-11,4.4-14.4,7.7c-3.4,3.3-4.9,7.3-4.6,12c0.4,4.7,2.6,8.2,6.7,10.7
			c4.1,2.4,9.3,4.2,15.5,5.2C767.3,891.6,766.2,879.8,765,867.9z M783.4,865.5c-0.9,0-2,0-3.3,0.1c-1.3,0.1-2.6,0.2-3.8,0.3
			c-1.1,0.1-2.2,0.3-3.4,0.4c-1.2,0.2-2.2,0.4-3.1,0.6c1.2,12.3,2.4,24.7,3.6,37c4.8,0.5,9.5,1,14.3,1.3
			C786.2,892,784.8,878.8,783.4,865.5z M789.3,921.3c-2.5-0.4-4.9-0.6-7.2-0.7c-2.3-0.1-4.7-0.3-7.2-0.4c1.3,13.5,2.6,26.9,3.9,40.4
			c1,0,2,0,2.9-0.1c1.2-0.1,2.2-0.2,3.2-0.3c1.5-0.2,3-0.3,4.5-0.5c1.4-0.2,2.7-0.4,3.9-0.7C791.9,946.4,790.6,933.8,789.3,921.3z
			 M810.5,925.9c-4.6-2.1-10-3.5-16.2-4.2c1.3,12,2.6,23.9,3.9,35.9c7.3-2.2,12.6-5.2,15.9-9c3.4-3.8,4.8-7.9,4.2-12.4
			C817.8,931.5,815.2,928,810.5,925.9z"/>
		<path class="st0" d="M975.1,911.1c-1.9,3.9-4.9,7.8-8.9,11.6c-4,3.8-9.1,7.3-15.3,10.5c-6.2,3.2-13.3,5.6-21.3,7.2
			c-10,2-19.3,2.5-28,1.7c-8.6-0.8-16.2-2.9-22.6-6.2c-6.4-3.3-11.6-7.5-15.6-12.7c-4-5.2-6.4-11-7.4-17.3
			c-0.8-5.1-0.1-10.4,1.9-15.9c2.1-5.5,5.3-10.7,9.8-15.5c4.5-4.9,10.2-9.2,17.1-12.9c6.9-3.8,14.7-6.5,23.6-8.2
			c7.2-1.4,14.1-2.2,20.7-2.3c6.6-0.1,12.5,0.5,17.8,2c5.3,1.4,9.8,3.7,13.6,6.7c3.8,3.1,6.6,7,8.4,11.9c-30.1,7-60.3,13-90.6,18.2
			c0.2,1,0.3,2.1,0.3,3.4c0,1.3,0.2,2.6,0.4,4c0.9,5.1,2.8,9.8,5.9,14.1c3.1,4.3,7.2,7.9,12.3,10.6c5.1,2.8,11.2,4.6,18.4,5.4
			c7.2,0.8,15.3,0.3,24.2-1.6c9.7-2,17.9-5.4,24.4-10c6.6-4.7,10.4-9.5,11.7-14.5c0.8-0.1,1.6-0.1,2.4-0.2
			C978.1,903.8,977,907.1,975.1,911.1z M929.3,857.2c-5.4-2.2-12-2.5-20-1c-5.2,1-9.7,2.9-13.5,5.7c-3.8,2.8-7,5.8-9.6,9
			c-2.6,3.2-4.5,6.3-5.8,9.4c-1.2,3-1.9,5.3-2,6.8c4.3-0.7,8.2-1.4,11.6-2c3.4-0.6,6.7-1.2,10-1.9c3.3-0.7,6.7-1.4,10.3-2.1
			c3.6-0.7,7.5-1.5,11.8-2.4c2.8-0.6,5.4-1.2,7.9-1.8c2.4-0.6,4.5-1.4,6.3-2.2c1.1-1.2,1.9-2.4,2.4-3.3c0.5-1,0.5-2.3,0.2-4
			C937.9,862.8,934.7,859.5,929.3,857.2z"/>
		<path class="st0" d="M1099.6,876.8c-1.6,4.1-4.3,8.2-8,12.3c-3.7,4.1-8.5,8.1-14.4,11.8c-5.9,3.7-12.8,6.7-20.7,9
			c-9.8,2.8-19.1,4.1-27.9,4c-8.7-0.1-16.4-1.5-23.2-4.2c-6.7-2.7-12.3-6.5-16.7-11.3c-4.4-4.8-7.3-10.4-8.8-16.6
			c-1.2-5-1-10.4,0.6-16c1.6-5.7,4.4-11.1,8.5-16.3c4.1-5.2,9.4-10,16-14.3c6.6-4.4,14.2-7.7,22.9-10.2c7.1-2,13.9-3.3,20.5-4
			c6.6-0.7,12.6-0.5,18,0.4c5.4,1,10.1,2.8,14.2,5.5c4.1,2.7,7.2,6.4,9.4,11.2c-29.5,9.5-59.3,18.2-89.2,25.8c0.2,1,0.4,2.1,0.6,3.4
			c0.1,1.3,0.4,2.6,0.7,3.9c1.3,5,3.6,9.6,7.1,13.6c3.5,4,7.8,7.2,13.2,9.6c5.3,2.4,11.6,3.6,18.9,3.8c7.3,0.2,15.3-1,24.1-3.6
			c9.5-2.8,17.4-6.9,23.6-12.1c6.2-5.2,9.7-10.4,10.5-15.5c0.8-0.1,1.6-0.3,2.4-0.4C1102,869.3,1101.2,872.7,1099.6,876.8z
			 M1049.3,827c-5.6-1.8-12.3-1.5-20.1,0.7c-5.1,1.4-9.4,3.7-13,6.8c-3.6,3.1-6.5,6.3-8.9,9.8c-2.3,3.4-4,6.7-5,9.8
			c-1,3.1-1.5,5.4-1.5,7c4.3-1.1,8.1-2.1,11.4-3c3.3-0.9,6.6-1.8,9.9-2.7c3.2-0.9,6.6-1.9,10.1-3c3.5-1,7.4-2.2,11.6-3.4
			c2.8-0.8,5.3-1.6,7.7-2.4c2.4-0.8,4.4-1.8,6.1-2.8c1-1.3,1.7-2.5,2.1-3.5c0.4-1,0.3-2.4-0.2-4
			C1058.4,831.8,1054.9,828.8,1049.3,827z"/>
	</g>
</g>
</svg>
