<?xml version="1.0" encoding="utf-8"?>
<!-- Generator: Adobe Illustrator 21.0.0, SVG Export Plug-In . SVG Version: 6.00 Build 0)  -->
<svg version="1.1" id="Layer_1" xmlns="http://www.w3.org/2000/svg" xmlns:xlink="http://www.w3.org/1999/xlink" x="0px" y="0px"
	 viewBox="0 0 1280 1024" style="enable-background:new 0 0 1280 1024;" xml:space="preserve">
<style type="text/css">
	.st0{fill:#FFFFFF;}
	.st1{fill:none;stroke:#FFFFFF;stroke-width:20;stroke-miterlimit:10;}
	.st2{font-family:'BigCaslon-Medium';}
	.st3{font-size:232.6933px;}
</style>
<g>
	<path class="st0" d="M640,236c85.2,0,167.7,7.4,245.4,22c74.7,14,141.6,34,199,59.4c56.4,25,100.4,53.8,130.8,85.7
		c29.7,31.1,44.8,63.6,44.8,96.6s-15.1,65.5-44.8,96.6c-30.4,31.9-74.4,60.7-130.8,85.7c-57.4,25.4-124.3,45.4-199,59.4
		c-77.7,14.6-160.3,22-245.4,22s-167.7-7.4-245.4-22c-74.7-14-141.6-34-199-59.4c-56.4-25-100.4-53.8-130.8-85.7
		C35.1,565.2,20,532.7,20,499.7s15.1-65.5,44.8-96.6c30.4-31.9,74.4-60.7,130.8-85.7C253,292,319.9,272,394.6,258
		C472.3,243.4,554.8,236,640,236 M640,216C286.5,216,0,343,0,499.7s286.5,283.7,640,283.7s640-127,640-283.7S993.5,216,640,216
		L640,216z"/>
</g>
<g>
	<path class="st0" d="M635,236c38.8,0,76.4,7,111.8,20.9c34.1,13.4,64.7,32.5,90.9,56.8c26.1,24.2,46.7,52.4,61,83.8
		c14.8,32.4,22.2,66.7,22.2,102.1s-7.5,69.8-22.2,102.1c-14.3,31.4-34.8,59.6-61,83.8c-26.2,24.3-56.8,43.5-90.9,56.8
		c-35.4,13.9-73,20.9-111.8,20.9s-76.4-7-111.8-20.9c-34.1-13.4-64.7-32.5-90.9-56.8c-26.1-24.2-46.7-52.4-61-83.8
		c-14.8-32.4-22.2-66.7-22.2-102.1s7.5-69.8,22.2-102.1c14.3-31.4,34.8-59.6,61-83.8c26.2-24.3,56.8-43.5,90.9-56.8
		C558.6,243,596.2,236,635,236 M635,216c-168.9,0-305.9,127-305.9,283.7s137,283.7,305.9,283.7s305.9-127,305.9-283.7
		S803.9,216,635,216L635,216z"/>
</g>
<g>
	<path d="M635,640.8c-84.3,0-152.9-63.3-152.9-141.1S550.7,358.6,635,358.6s152.9,63.3,152.9,141.1S719.3,640.8,635,640.8z"/>
	<path d="M635,368.6c78.8,0,142.9,58.8,142.9,131.1S713.8,630.8,635,630.8S492.1,572,492.1,499.7S556.2,368.6,635,368.6 M635,348.6
		c-90,0-162.9,67.7-162.9,151.1c0,83.5,72.9,151.1,162.9,151.1s162.9-67.7,162.9-151.1C797.9,416.2,725,348.6,635,348.6L635,348.6z"
		/>
</g>
<g>
	<line class="st1" x1="234.4" y1="282.3" x2="141.3" y2="103.4"/>
</g>
<line class="st1" x1="440.5" y1="223.7" x2="400.6" y2="66.4"/>
<line class="st1" x1="636.7" y1="217.5" x2="633.4" y2="47.9"/>
<line class="st1" x1="846.1" y1="226.8" x2="899.3" y2="78.7"/>
<line class="st1" x1="1065.6" y1="288.4" x2="1152" y2="134.2"/>
<text transform="matrix(0.8488 0 0 1 511.9351 580.9338)" class="st0 st2 st3">FS</text>
<g>
	<g>
		<path class="st0" d="M357.4,827.5c-6.3-7.7-12.3-14.4-18.1-20.1c-5.8-5.8-11.5-10.4-17.3-13.8c-2.8-1.7-8.1-3.7-15.9-6.3
			s-16.9-5.2-27.4-7.9c-1.8-0.5-3.8-1-6.1-1.5c-2.3-0.5-4.6-1.1-6.7-1.6s-4.2-1-6-1.4c-1.9-0.5-3.3-0.8-4.1-1
			c-0.4,0.7-0.8,1.3-1.3,2c-0.5,0.6-0.9,1.4-1.4,2.3c-0.4,0.9-1,2.1-1.6,3.5s-1.3,3.2-2.1,5.3c-1.3,4.1-2.8,8.6-4.2,13.5
			c-1.5,4.9-2.8,9.6-4.1,14c-1.2,4.4-2.3,8.2-3.2,11.4c-0.9,3.1-1.4,4.9-1.5,5.5c0.6,0.2,2.2,0.6,5,1.4c2.9,0.8,6.2,1.7,9.9,2.5
			c3.6,0.9,7.4,1.7,11.3,2.5s7.2,1.4,9.9,1.7c6.9,0.7,12.5,0.8,16.8,0.1c4.3-0.6,7.8-1.8,10.5-3.4c2.7-1.6,4.8-3.7,6.4-6
			c1.5-2.4,3-5,4.4-7.8c1.1,0.3,2.2,0.5,3.3,0.8c-4.4,19.4-8.8,38.8-13.2,58.1c-1.1-0.3-2.3-0.5-3.4-0.8c-0.6-4.2-1.9-8.8-3.7-13.7
			c-1.8-4.9-4.4-9-7.8-12.2c-3.1-2.9-6.5-5.4-10.2-7.4s-8.3-3.8-13.6-5.5c-2.8-0.8-5.1-1.6-7.2-2.2c-2-0.6-4-1.2-5.8-1.7
			c-1.9-0.5-3.8-1-5.8-1.6s-4.5-1.2-7.5-2.1c-1.1,3.8-2.1,7.6-3.2,11.4c-1,3.7-2,7.3-3,10.7c-0.9,3.3-1.7,6.4-2.4,9.2
			s-1.3,5.2-1.9,7.3c-0.9,3.9-1.6,7.5-2,11.1c-0.5,3.5-0.1,6.4,1.2,8.5s3.8,4.2,7.8,6.3c3.9,2,9.8,4.2,17.7,6.5
			c-0.2,0.6-0.3,1.2-0.5,1.8c-31-8-61.8-17-92.4-26.9c0.2-0.6,0.4-1.2,0.6-1.8c4.9,1.1,9.6,1.7,14.1,2c4.4,0.2,8.3-0.2,11.5-1.3
			c1.2-0.4,2.3-1.2,3.2-2.4c1-1.2,2-2.6,3-4.2c1-1.6,1.9-3.4,2.7-5.3c0.8-1.9,1.5-3.8,2-5.7c0.5-1.7,1.2-3.9,2.2-6.7s2-5.9,3.1-9.2
			s2.2-6.8,3.3-10.3c1.1-3.7,2.1-7.1,3.1-10.3c3.5-11.5,7-23,10.5-34.5c0.6-2.1,1.3-4.3,1.9-6.6c0.6-2.3,1.1-4.4,1.4-6.5
			c0.3-2.1,0.4-4,0.3-5.8c-0.1-1.8-0.6-3.2-1.5-4.2c-2.1-2.7-4.5-4.8-7.3-6.2c-2.8-1.5-6.5-3.2-11.1-5.2c0.2-0.6,0.4-1.2,0.6-1.8
			c48.6,15.7,97.9,28.7,147.6,39.1c4,11.4,8.1,22.8,12.3,34.2C359.3,827.3,358.4,827.4,357.4,827.5z"/>
		<path class="st0" d="M478.1,920.2c-4.3,5.2-9.8,9.5-16.5,13c-6.8,3.4-14.5,5.8-23.1,7.1c-8.7,1.2-17.7,1.2-26.9-0.2
			c-7.7-1.1-15.5-3.2-23.5-6.3c-8-3-15.1-7.1-21.4-12s-11-10.7-14.3-17.3c-3.2-6.6-4.1-13.8-2.6-21.5c1.1-5.6,3.8-10.6,8.1-15.2
			c4.3-4.6,9.7-8.3,16.3-11.3c6.6-2.9,14.2-4.9,22.9-6c8.7-1.1,18-0.8,28,0.6c7.4,1.1,14.8,3,22.2,5.9c7.4,2.8,14,6.4,19.9,10.8
			c5.9,4.3,10.5,9.4,14.1,15.3c3.5,5.9,4.9,12.5,4.2,19.9C484.8,909.3,482.3,915,478.1,920.2z M458.1,886.2c-0.8-5-2.6-9.6-5.3-14.1
			c-2.7-4.4-6.5-8.3-11.4-11.6s-11.1-5.5-18.7-6.7c-6.1-0.9-11.8-0.5-17,1.1c-5.2,1.7-9.9,4.2-14,7.5c-4.1,3.4-7.5,7.4-10.2,12
			s-4.4,9.5-5.3,14.6c-1,5.6-1.2,11-0.5,16.3s2.4,10.1,5.3,14.5s6.8,8.2,12,11.3c5.1,3.1,11.5,5.3,19.2,6.4
			c7.7,1.1,14.3,0.6,19.9-1.6c5.6-2.2,10.3-5.2,14-9.2c3.8-3.9,6.7-8.3,8.7-13.2c2.1-4.8,3.3-9.4,3.8-13.7
			C459.1,895.7,459,891.1,458.1,886.2z"/>
		<path class="st0" d="M593.9,882.5c-2.5,1.7-5.4,2.5-8.6,2.4c-3-0.1-5.4-0.5-7.2-1.3c-1.8-0.7-3.3-1.6-4.6-2.5s-2.7-1.8-4.1-2.5
			c-1.5-0.7-3.5-1.2-6.2-1.3c-2.3-0.1-4.5,0.3-6.7,1.2s-4.3,2.1-6.3,3.6s-3.8,3.2-5.5,5.1c-1.6,1.9-3.1,3.8-4.4,5.6
			c-1.2,17.7-2.3,35.5-3.5,53.2c0.5,1.1,1.7,2.1,3.7,2.8c1.9,0.7,4.1,1.3,6.6,1.7s5,0.7,7.7,0.9s5,0.5,7,0.8c0,0.6-0.1,1.2-0.1,1.8
			c-22.2-1.1-44.4-2.6-66.6-4.7c0.1-0.6,0.1-1.2,0.2-1.8c4.6,0.2,8.5,0,11.9-0.6c3.3-0.6,5.1-1.9,5.2-3.8
			c1.7-20.8,3.4-41.6,5.1-62.4c0.1-1,0-1.7-0.2-2.2s-1-1.1-2.3-1.9c-1.6-0.8-3.6-1.7-5.7-2.8c-2.2-1.1-4.4-2.1-6.6-2.9
			c0-0.4,0.1-0.7,0.1-1.1c12.6-2,25.1-4.2,37.6-6.5c0.6,0,1.1,0.1,1.7,0.1c-0.7,8.5-1.5,17.1-2.2,25.6c0.2,0,0.4,0,0.6,0
			c1-1.4,2.7-3.5,5-6.2s5.1-5.4,8.4-8.1c3.4-2.7,7.4-5,12-6.9s9.8-2.7,15.6-2.5c4.7,0.2,8.6,1.2,11.8,3.2s4.8,4.3,4.7,7.2
			C597.7,878.6,596.4,880.8,593.9,882.5z"/>
		<path class="st0" d="M715.3,935.1c-2.6,3.5-6.2,6.8-10.8,9.9c-4.6,3-10.2,5.6-16.8,7.7c-6.6,2.1-14,3.2-22.1,3.3
			c-10.1,0.2-19.4-0.9-27.7-3.3c-8.3-2.3-15.4-5.7-21.1-10c-5.8-4.3-10.1-9.4-13.1-15.2s-4.4-11.9-4.2-18.3
			c0.1-5.2,1.7-10.3,4.7-15.4c3-5.1,7.1-9.6,12.4-13.6c5.3-4,11.6-7.2,19-9.8c7.4-2.5,15.6-3.8,24.6-4c7.3-0.1,14.2,0.3,20.7,1.4
			c6.5,1,12.2,2.7,17.1,5c4.9,2.3,9,5.3,12.2,9s5.3,8.1,6.1,13.2c-30.6,1.6-61.3,2.3-92,2c0,1-0.1,2.1-0.3,3.4
			c-0.2,1.3-0.3,2.6-0.3,4c0,5.2,1.1,10.2,3.4,14.9c2.3,4.8,5.7,9,10.2,12.6s10.2,6.5,17.1,8.5c6.9,2,14.9,2.9,24,2.7
			c9.9-0.3,18.4-2.2,25.6-5.6c7.2-3.5,11.9-7.6,14-12.3c0.8,0.1,1.6,0.2,2.4,0.2C719.5,928.4,717.9,931.6,715.3,935.1z M679.8,874.1
			c-4.9-3.1-11.4-4.6-19.4-4.5c-5.3,0.1-10,1.1-14.2,3.2c-4.2,2.1-7.9,4.4-11,7.2c-3.1,2.7-5.6,5.4-7.3,8.2s-2.8,4.9-3.2,6.4
			c4.4,0,8.3,0.1,11.7,0.1s6.8,0,10.2-0.1c3.3-0.1,6.8-0.2,10.4-0.3c3.6-0.1,7.6-0.2,12-0.3c2.9-0.1,5.5-0.2,8-0.4s4.7-0.6,6.5-1.1
			c1.3-1,2.3-2,2.9-2.9c0.6-0.9,0.9-2.2,0.9-3.9C687.3,881,684.7,877.2,679.8,874.1z"/>
		<path class="st0" d="M838.4,934.2c-7.7,6.1-18.5,10.5-32.1,13.1c1.1,8.8,2.1,17.5,3.2,26.3c-1.9,0.2-3.8,0.4-5.7,0.6
			c-0.8-8.7-1.6-17.3-2.4-26c-1.3,0.3-2.7,0.5-4.1,0.6c-1.4,0.1-2.7,0.3-4.1,0.4c-2.1,0.2-4.3,0.4-6.4,0.6
			c0.9,8.6,1.9,17.2,2.8,25.8c-1.9,0.2-3.8,0.4-5.7,0.5c-0.7-8.7-1.4-17.5-2.1-26.2c-14.3,0.7-25.9-0.6-34.7-3.8s-13.3-8-13.7-14.3
			c-0.2-2.6,1.2-4.9,4-7s6.1-3.3,10-3.6c3.3-0.2,6.2,0.2,8.7,1.2s4.3,2.4,5.2,4.2c-0.5,1-0.9,2-1.1,3c-0.2,0.9-0.3,2.1-0.2,3.4
			c0.3,3.7,1.9,6.9,4.9,9.7s8.5,4.3,16.5,4.6c-1.3-13.6-2.5-27.3-3.8-40.9c-2.2-0.2-4.4-0.4-6.6-0.8c-2.3-0.4-4.1-0.6-5.4-0.7
			c-8.8-1.4-16.3-3.9-22.4-7.6c-6.1-3.7-9.3-8.6-9.7-14.6c-0.3-3.9,0.6-7.6,2.6-10.8c1.9-3.3,4.7-6.2,8.1-8.8
			c3.5-2.6,7.7-4.8,12.6-6.7c4.9-1.9,10.2-3.4,15.9-4.5c-0.8-7.2-1.5-14.5-2.3-21.7c1.7-0.2,3.5-0.3,5.2-0.5
			c0.6,7.1,1.2,14.3,1.8,21.4c1.1-0.2,2.2-0.4,3.2-0.5c1.3-0.1,2.4-0.2,3.5-0.4c1.1-0.1,2.2-0.2,3.3-0.3c1.3-0.1,2.5-0.2,3.6-0.2
			c-0.8-7.1-1.7-14.2-2.5-21.3c1.7-0.2,3.5-0.4,5.2-0.6c0.7,7.2,1.4,14.5,2.1,21.7c11.2-0.2,20.8,1,28.8,3.7s12.4,7,13.3,13
			c0.4,2.6-0.7,5-3,7.2c-2.4,2.3-5.6,3.6-9.5,4.1c-3.2,0.4-6,0.1-8.3-0.8c-2.3-1-4-2.3-4.9-4.1c0.4-1,0.8-2,0.9-3
			c0.2-1,0.2-2.1,0-3.5c-0.4-3.6-2-6.6-4.6-9.1c-2.7-2.5-6.7-4.1-12.2-4.6c1.5,13.3,2.9,26.6,4.4,39.9c2.2,0.3,4.1,0.5,5.8,0.7
			s3.6,0.3,5.7,0.5c10.6,0.9,19.2,3,25.6,6.6c6.5,3.6,10.2,8.4,11,14.7C849.5,921.5,846.1,928.1,838.4,934.2z M772.8,854.6
			c-6.2,1.8-11,4.4-14.4,7.7s-4.9,7.3-4.6,12c0.4,4.7,2.6,8.2,6.7,10.7c4.1,2.4,9.3,4.2,15.5,5.2C775.1,878.3,774,866.5,772.8,854.6
			z M791.2,852.2c-0.9,0-2,0-3.3,0.1s-2.6,0.2-3.8,0.3c-1.1,0.1-2.2,0.3-3.4,0.4c-1.2,0.2-2.2,0.4-3.1,0.6c1.2,12.3,2.4,24.7,3.6,37
			c4.8,0.5,9.5,1,14.3,1.3C794,878.7,792.6,865.5,791.2,852.2z M797.1,908c-2.5-0.4-4.9-0.6-7.2-0.7c-2.3-0.1-4.7-0.3-7.2-0.4
			c1.3,13.5,2.6,26.9,3.9,40.4c1,0,2,0,2.9-0.1c1.2-0.1,2.2-0.2,3.2-0.3c1.5-0.2,3-0.3,4.5-0.5c1.4-0.2,2.7-0.4,3.9-0.7
			C799.7,933.1,798.4,920.5,797.1,908z M818.3,912.6c-4.6-2.1-10-3.5-16.2-4.2c1.3,12,2.6,23.9,3.9,35.9c7.3-2.2,12.6-5.2,15.9-9
			c3.4-3.8,4.8-7.9,4.2-12.4C825.6,918.2,823,914.7,818.3,912.6z"/>
		<path class="st0" d="M982.9,897.8c-1.9,3.9-4.9,7.8-8.9,11.6s-9.1,7.3-15.3,10.5s-13.3,5.6-21.3,7.2c-10,2-19.3,2.5-28,1.7
			c-8.6-0.8-16.2-2.9-22.6-6.2c-6.4-3.3-11.6-7.5-15.6-12.7s-6.4-11-7.4-17.3c-0.8-5.1-0.1-10.4,1.9-15.9c2.1-5.5,5.3-10.7,9.8-15.5
			c4.5-4.9,10.2-9.2,17.1-12.9c6.9-3.8,14.7-6.5,23.6-8.2c7.2-1.4,14.1-2.2,20.7-2.3c6.6-0.1,12.5,0.5,17.8,2
			c5.3,1.4,9.8,3.7,13.6,6.7c3.8,3.1,6.6,7,8.4,11.9c-30.1,7-60.3,13-90.6,18.2c0.2,1,0.3,2.1,0.3,3.4c0,1.3,0.2,2.6,0.4,4
			c0.9,5.1,2.8,9.8,5.9,14.1c3.1,4.3,7.2,7.9,12.3,10.6c5.1,2.8,11.2,4.6,18.4,5.4c7.2,0.8,15.3,0.3,24.2-1.6
			c9.7-2,17.9-5.4,24.4-10c6.6-4.7,10.4-9.5,11.7-14.5c0.8-0.1,1.6-0.1,2.4-0.2C985.9,890.5,984.8,893.8,982.9,897.8z M937.1,843.9
			c-5.4-2.2-12-2.5-20-1c-5.2,1-9.7,2.9-13.5,5.7s-7,5.8-9.6,9s-4.5,6.3-5.8,9.4c-1.2,3-1.9,5.3-2,6.8c4.3-0.7,8.2-1.4,11.6-2
			c3.4-0.6,6.7-1.2,10-1.9s6.7-1.4,10.3-2.1c3.6-0.7,7.5-1.5,11.8-2.4c2.8-0.6,5.4-1.2,7.9-1.8c2.4-0.6,4.5-1.4,6.3-2.2
			c1.1-1.2,1.9-2.4,2.4-3.3c0.5-1,0.5-2.3,0.2-4C945.7,849.5,942.5,846.2,937.1,843.9z"/>
		<path class="st0" d="M1107.4,863.5c-1.6,4.1-4.3,8.2-8,12.3s-8.5,8.1-14.4,11.8s-12.8,6.7-20.7,9c-9.8,2.8-19.1,4.1-27.9,4
			c-8.7-0.1-16.4-1.5-23.2-4.2c-6.7-2.7-12.3-6.5-16.7-11.3s-7.3-10.4-8.8-16.6c-1.2-5-1-10.4,0.6-16c1.6-5.7,4.4-11.1,8.5-16.3
			s9.4-10,16-14.3c6.6-4.4,14.2-7.7,22.9-10.2c7.1-2,13.9-3.3,20.5-4s12.6-0.5,18,0.4c5.4,1,10.1,2.8,14.2,5.5s7.2,6.4,9.4,11.2
			c-29.5,9.5-59.3,18.2-89.2,25.8c0.2,1,0.4,2.1,0.6,3.4c0.1,1.3,0.4,2.6,0.7,3.9c1.3,5,3.6,9.6,7.1,13.6s7.8,7.2,13.2,9.6
			c5.3,2.4,11.6,3.6,18.9,3.8c7.3,0.2,15.3-1,24.1-3.6c9.5-2.8,17.4-6.9,23.6-12.1c6.2-5.2,9.7-10.4,10.5-15.5
			c0.8-0.1,1.6-0.3,2.4-0.4C1109.8,856,1109,859.4,1107.4,863.5z M1057.1,813.7c-5.6-1.8-12.3-1.5-20.1,0.7c-5.1,1.4-9.4,3.7-13,6.8
			c-3.6,3.1-6.5,6.3-8.9,9.8c-2.3,3.4-4,6.7-5,9.8s-1.5,5.4-1.5,7c4.3-1.1,8.1-2.1,11.4-3c3.3-0.9,6.6-1.8,9.9-2.7
			c3.2-0.9,6.6-1.9,10.1-3c3.5-1,7.4-2.2,11.6-3.4c2.8-0.8,5.3-1.6,7.7-2.4c2.4-0.8,4.4-1.8,6.1-2.8c1-1.3,1.7-2.5,2.1-3.5
			s0.3-2.4-0.2-4C1066.2,818.5,1062.7,815.5,1057.1,813.7z"/>
	</g>
</g>
</svg>
